<svg width="120" height="32" viewBox="0 0 120 32" fill="none" xmlns="http://www.w3.org/2000/svg">
  <rect width="32" height="32" rx="8" fill="#0087E6"/>
  <path d="M8 16C8 11.5817 11.5817 8 16 8C20.4183 8 24 11.5817 24 16C24 20.4183 20.4183 24 16 24C11.5817 24 8 20.4183 8 16Z" stroke="white" stroke-width="2"/>
  <path d="M16 8V24" stroke="white" stroke-width="2"/>
  <path d="M8 16H24" stroke="white" stroke-width="2"/>
  <path d="M11 11L21 21" stroke="white" stroke-width="2"/>
  <path d="M11 21L21 11" stroke="white" stroke-width="2"/>
  <path d="M40 20V12H42.5L45.5 17.5V12H48V20H45.5L42.5 14.5V20H40Z" fill="#111827"/>
  <path d="M50 20V12H57V14H52.5V15H56.5V17H52.5V18H57V20H50Z" fill="#111827"/>
  <path d="M58.5 20V12H61V17.5L64.5 12H67V20H64.5V14.5L61 20H58.5Z" fill="#111827"/>
  <path d="M68.5 20V12H71V20H68.5Z" fill="#111827"/>
  <path d="M72.5 20V12H75V15H76C76.8333 15 77.5 15.1667 78 15.5C78.5 15.8333 78.75 16.3333 78.75 17C78.75 17.6667 78.5 18.1667 78 18.5C77.5 18.8333 76.8333 19 76 19H75V20H72.5ZM75 17.5H76C76.1667 17.5 76.2917 17.4583 76.375 17.375C76.4583 17.2917 76.5 17.1667 76.5 17C76.5 16.8333 76.4583 16.7083 76.375 16.625C76.2917 16.5417 76.1667 16.5 76 16.5H75V17.5Z" fill="#111827"/>
  <path d="M80 20V12H82.5L85.5 17.5V12H88V20H85.5L82.5 14.5V20H80Z" fill="#111827"/>
  <path d="M89.5 16C89.5 15.1667 89.6667 14.4167 90 13.75C90.3333 13.0833 90.8333 12.5833 91.5 12.25C92.1667 11.9167 92.9167 11.75 93.75 11.75C94.9167 11.75 95.8333 12.0833 96.5 12.75C97.1667 13.4167 97.5 14.3333 97.5 15.5C97.5 16.6667 97.1667 17.5833 96.5 18.25C95.8333 18.9167 94.9167 19.25 93.75 19.25C92.9167 19.25 92.1667 19.0833 91.5 18.75C90.8333 18.4167 90.3333 17.9167 90 17.25C89.6667 16.5833 89.5 15.8333 89.5 16ZM92 16C92 16.5 92.0833 16.9167 92.25 17.25C92.4167 17.5833 92.6667 17.75 93 17.75C93.3333 17.75 93.5833 17.5833 93.75 17.25C93.9167 16.9167 94 16.5 94 16C94 15.5 93.9167 15.0833 93.75 14.75C93.5833 14.4167 93.3333 14.25 93 14.25C92.6667 14.25 92.4167 14.4167 92.25 14.75C92.0833 15.0833 92 15.5 92 16Z" fill="#111827"/>
  <path d="M104 20L103 18H100.5L99.5 20H97L100.5 12H103L106.5 20H104ZM101 16.5H102.5L101.75 14.5L101 16.5Z" fill="#111827"/>
  <path d="M107 20V12H109.5L112.5 17.5V12H115V20H112.5L109.5 14.5V20H107Z" fill="#111827"/>
</svg> 